<svg xmlns="http://www.w3.org/2000/svg" version="1.1" xmlns:xlink="http://www.w3.org/1999/xlink" xmlns:svgjs="http://svgjs.dev/svgjs" width="1500" height="352" viewBox="0 0 1500 352"><g transform="matrix(1,0,0,1,-0.9085158335252572,-0.27021350793805254)"><svg viewBox="0 0 396 93" data-background-color="#000000" preserveAspectRatio="xMidYMid meet" height="352" width="1500" xmlns="http://www.w3.org/2000/svg" xmlns:xlink="http://www.w3.org/1999/xlink"><g id="tight-bounds" transform="matrix(1,0,0,1,0.23984818005067154,0.07139163704044904)"><svg viewBox="0 0 395.52 92.85691308602047" height="92.85691308602047" width="395.52"><g><svg viewBox="0 0 545.4514622110397 128.0565812580231" height="92.85691308602047" width="395.52"><g transform="matrix(1,0,0,1,0,17.698123748395382)"><svg viewBox="0 0 395.52 92.66033376123234" height="92.66033376123234" width="395.52"><g id="textblocktransform"><svg viewBox="0 0 395.52 92.66033376123234" height="92.66033376123234" width="395.52" id="textblock"><g><svg viewBox="0 0 395.52 92.66033376123234" height="92.66033376123234" width="395.52"><g transform="matrix(1,0,0,1,0,0)"><svg width="395.52" viewBox="3.1 -35.95 155.79 36.5" height="92.66033376123234" data-palette-color="#48937e"><path d="M17.75-35.05Q21.2-34.85 23.48-32.25 25.75-29.65 25.75-24.45L25.75-24.45Q25.75-21.05 24.3-19.05 22.85-17.05 20.95-16.28 19.05-15.5 17.6-15.5L17.6-15.5Q16.25-15.5 13.05-15.2L13.05-15.2Q11.2-15 10.05-14.95L10.05-14.95Q9.95-10.35 9.95-8.7L9.95-8.7Q9.95-2.2 10.1-1.65L10.1-1.65Q10.2-1.15 9.93-0.78 9.65-0.4 9.22-0.28 8.8-0.15 8.45-0.3L8.45-0.3Q8.3-0.35 7.6-0.35L7.6-0.35Q6.1-0.35 4.4-0.15L4.4-0.15Q3.6-0.05 3.35-0.48 3.1-0.9 3.1-1.8L3.1-1.8Q3.1-2.9 3.15-3.8L3.15-3.8 3.2-8 3.3-13.9Q3.6-24.5 3.6-30.45L3.6-30.45Q3.6-32.25 3.55-32.6L3.55-32.6Q3.45-33.7 3.45-33.9L3.45-33.9Q3.45-35.2 4-35.2L4-35.2Q4.25-35.2 5.03-35.15 5.8-35.1 7.2-35.1L7.2-35.1Q7.6-35.1 9.25-35.15 10.9-35.2 12.7-35.2L12.7-35.2Q15.35-35.2 17.75-35.05L17.75-35.05ZM16.2-19.1Q18.05-19.1 19.65-20.2 21.25-21.3 21.25-24.15L21.25-24.15Q21.25-27.2 20-28.78 18.75-30.35 16.35-30.8L16.35-30.8Q12.6-31.55 10.45-31.4L10.45-31.4Q10.45-30 10.4-29.3L10.4-29.3Q10.3-26.5 10.15-25.3L10.15-25.3Q9.95-23.55 10.05-21.35L10.05-21.35 10.15-19.4 12.5-19.25Q13.85-19.1 16.2-19.1L16.2-19.1ZM47.85-34.9Q50.85-32.9 52.67-29.5 54.5-26.1 55.22-22.88 55.95-19.65 55.95-17.8L55.95-17.8Q55.95-14.7 54.97-10.6 54-6.5 50.8-2.98 47.6 0.55 41.55 0.55L41.55 0.55Q33.25 0.55 29.75-9.1L29.75-9.1Q28.2-13.45 28-18.8L28-18.8Q28-23.2 29.85-27.18 31.7-31.15 34.72-33.55 37.75-35.95 40.95-35.95L40.95-35.95Q43.85-35.95 45.27-35.8 46.7-35.65 47.85-34.9L47.85-34.9ZM41.3-2.25Q46.6-2.25 49.2-6.68 51.8-11.1 51.8-17.8L51.8-17.8Q51.8-21.9 50.57-25.38 49.35-28.85 47.12-30.93 44.9-33 42-33L42-33Q41.75-33 40.67-33 39.6-33 38.8-32.65 38-32.3 37.35-31.6L37.35-31.6Q35.7-29.95 34.57-28.58 33.45-27.2 32.32-24.5 31.2-21.8 31.2-18.25L31.2-18.25Q31.2-14.05 32.22-10.43 33.25-6.8 35.5-4.53 37.75-2.25 41.3-2.25L41.3-2.25ZM82.4-32.55Q82.6-32.3 83.52-31.2 84.45-30.1 84.95-28.75 85.45-27.4 85.45-25.85L85.45-25.85Q85.45-21.7 83.02-19.2 80.6-16.7 76.9-15.4L76.9-15.4Q72.9-14.05 68.35-14L68.35-14 68.25-8.55 68.15-1.5Q68.15 0 66.95 0L66.95 0Q66.65 0 66.35-0.05 66.05-0.1 65.85-0.1L65.85-0.1 63.95 0 62 0.1Q61.45 0.1 61.25-0.3 61.05-0.7 61.05-1.5L61.05-1.5Q61.05-1.75 61.07-2.45 61.1-3.15 61.1-4.55L61.1-4.55Q61.25-12.2 61.25-12.3L61.25-12.3 61.25-26Q61.25-28 61.45-30.35L61.45-30.35 61.65-33.65Q61.65-34.45 61.82-34.58 62-34.7 62.6-34.7L62.6-34.7Q63-34.7 65-34.9L65-34.9Q67.6-35.2 69.15-35.2L69.15-35.2Q73.35-35.2 75.57-35.08 77.8-34.95 79.57-34.38 81.35-33.8 82.4-32.55L82.4-32.55ZM78.2-18Q80-18.85 80.85-20.28 81.7-21.7 81.7-24.1L81.7-24.1Q81.7-26 81.3-28.05L81.3-28.05Q80.9-30.1 79.05-31.2 77.2-32.3 74.6-32.65L74.6-32.65Q73.25-32.85 71.4-32.85L71.4-32.85Q70.6-32.85 68.7-32.75L68.7-32.75 68.4-16.6Q70.35-16.55 72.15-16.75L72.15-16.75Q76.25-17.05 78.2-18L78.2-18ZM97.49-16.55L97.69-17.2 98.19-18.6Q98.54-19.45 99.39-22.7L99.39-22.7 99.74-24Q99.94-24.75 100.64-26.85 101.34-28.95 101.74-30.1L101.74-30.1Q101.99-30.65 102.34-31.75L102.34-31.75Q103.64-35.05 104.24-35.05L104.24-35.05Q104.59-35.05 104.69-34.95 104.79-34.85 104.84-34.6 104.89-34.35 104.94-34.2L104.94-34.2Q105.04-33.8 105.19-33.27 105.34-32.75 105.44-32.1L105.44-32.1Q107.44-26.9 107.84-25.9L107.84-25.9 109.39-22.55 110.29-20.55Q110.39-20.85 110.49-21L110.49-21 110.99-22.25Q111.09-22.55 111.39-24.3L111.39-24.3Q111.74-26.5 111.99-27.45L111.99-27.45Q112.24-28.4 112.89-30.2L112.89-30.2Q113.64-32.4 113.74-33.15L113.74-33.15Q113.94-34.9 114.94-34.9L114.94-34.9Q115.74-35.1 116.74-35.1L116.74-35.1Q117.24-35.1 117.39-35.05L117.39-35.05Q117.99-35.05 117.99-34.6L117.99-34.6 117.89-34 117.44-32.6Q117.09-31.25 116.84-30.55L116.84-30.55Q116.59-29.65 116.24-28.4 115.89-27.15 115.54-25.85L115.54-25.85Q114.79-22.9 114.24-21.05L114.24-21.05Q113.94-19.85 113.59-17.53 113.24-15.2 113.24-14.8L113.24-14.8Q113.24-13.6 112.54-11.9L112.54-11.9Q112.29-11.15 111.79-8.6 111.29-6.05 111.14-5.15L111.14-5.15Q110.64-1.85 110.44-1.5L110.44-1.5Q110.39-1.2 110.32-0.78 110.24-0.35 110.17-0.15 110.09 0.05 109.94 0.05L109.94 0.05Q109.54 0.05 109.37-0.15 109.19-0.35 108.89-1L108.89-1Q108.49-1.5 106.84-5.85L106.84-5.85Q106.49-6.75 104.74-11.7L104.74-11.7Q104.44-12.75 103.74-14.55L103.74-14.55 103.04-16.4 102.34-15Q101.84-13.9 100.84-11.3L100.84-11.3 100.44-10.3Q99.84-8.55 98.54-3.15L98.54-3.15 98.19-1.7Q98.04-1.1 97.72-0.53 97.39 0.05 97.14 0.05L97.14 0.05Q96.79 0.05 96.62-0.2 96.44-0.45 96.29-1L96.29-1Q96.09-1.4 95.59-3.85L95.59-3.85Q95.39-4.65 94.99-6.28 94.59-7.9 94.39-8.4L94.39-8.4Q93.94-9.5 93.34-11.63 92.74-13.75 92.64-14.15L92.64-14.15Q92.24-15.1 90.34-22.2L90.34-22.2Q90.04-23.15 89.79-24.08 89.54-25 89.34-25.7L89.34-25.7 88.39-29.25 87.29-33.3Q87.09-33.95 87.09-34.3L87.09-34.3Q87.09-34.45 87.19-34.5 87.29-34.55 87.44-34.55L87.44-34.55 88.99-34.55Q89.84-34.55 90.19-34.6L90.19-34.6 90.74-34.7Q91.24-34.85 91.42-34.55 91.59-34.25 91.79-33.3L91.79-33.3Q91.89-32.9 92.79-29.78 93.69-26.65 94.89-23.65L94.89-23.65Q95.84-20.7 96.64-18.75L96.64-18.75 97.49-16.55ZM124.19-35.25Q124.84-35.2 125.47-35.23 126.09-35.25 126.54-35.25L126.54-35.25Q127.64-35.25 128.14-35.2L128.14-35.2Q128.74-35.15 128.99-34.95 129.24-34.75 129.24-34.4L129.24-34.4Q129.24-34.15 129.19-33.85 129.14-33.55 129.09-33.3L129.09-33.3Q128.54-29.05 128.49-24.55L128.49-24.55Q128.44-23.25 128.44-20.55L128.44-20.55 128.49-14.5Q128.54-13.75 128.54-12.95L128.54-12.95 128.59-10.95Q128.69-8.35 128.69-7.1L128.69-7.1Q128.69-6.15 128.64-5.95L128.64-5.95Q128.59-5.75 128.59-4.8L128.59-4.8 128.64-2.05Q128.69-1.45 128.69-0.55L128.69-0.55Q128.74 0.1 128.32 0.28 127.89 0.45 127.19 0.4L127.19 0.4 122.64 0.4Q121.89 0.45 121.69 0.08 121.49-0.3 121.44-1.15L121.44-1.15Q121.34-1.5 121.54-3L121.54-3Q121.74-4.4 121.74-5.4L121.74-5.4Q121.74-5.75 122.09-12.15L122.09-12.15Q122.39-16.85 122.39-17.3L122.39-17.3 122.49-22.2 122.59-26.75 122.69-29.45 122.79-31.25 122.79-33.35Q122.79-35.3 123.79-35.3L123.79-35.3Q124.04-35.3 124.19-35.25L124.19-35.25ZM135.39-35.2L140.29-35.25 145.74-35.2Q150.94-35.2 152.49-35.05L152.49-35.05Q155.34-34.8 156.54-34.8L156.54-34.8Q157.34-34.8 157.59-34.85L157.59-34.85 157.94-34.9Q158.29-34.9 158.36-34.77 158.44-34.65 158.41-34.48 158.39-34.3 158.39-34.2L158.39-34.2Q158.39-33.75 158.19-32.35L158.19-32.35Q158.14-31.85 157.76-31.35 157.39-30.85 156.59-29.95L156.59-29.95Q156.64-30 155.44-28.65L155.44-28.65Q153.49-26.05 150.29-21.25L150.29-21.25Q149.59-20.15 144.69-13.75L144.69-13.75 143.89-12.7Q142.79-11.2 140.64-8.45L140.64-8.45Q140.19-7.95 139.39-6.6L139.39-6.6 138.64-5.4 137.34-3.25Q139.69-3.2 143.69-3.2L143.69-3.2 150.64-3.15 152.69-3.05 155.09-2.95 158.39-3 158.49-3Q158.89-3 158.86-2.78 158.84-2.55 158.84-2.5L158.84-2.5 158.89-0.9Q158.89-0.3 158.24-0.3L158.24-0.3Q158.09-0.3 157.49-0.4L157.49-0.4Q156.04-0.65 154.29-0.55L154.29-0.55 149.44-0.45 142.64-0.3Q135.19-0.3 133.94-0.15L133.94-0.15 133.64-0.15Q133.14-0.15 133.04-0.35 132.94-0.55 132.96-0.75 132.99-0.95 132.99-1.05L132.99-1.05Q132.99-1.8 133.89-3.1L133.89-3.1Q134.64-4.1 134.94-4.55L134.94-4.55Q139.94-11.35 141.04-12.7L141.04-12.7 144.49-17.1Q148.89-22.7 149.69-23.7L149.69-23.7Q151.34-25.7 153.54-29.1L153.54-29.1 155.54-32.25 152.54-32.25Q149.09-32.25 148.14-32.3L148.14-32.3Q146.59-32.3 145.24-32.35L145.24-32.35Q140.74-32.45 137.74-32.45L137.74-32.45Q135.59-32.45 134.69-32.35L134.69-32.35Q132.79-32.2 132.79-33.05L132.79-33.05Q132.79-34.05 132.99-35L132.99-35Q133.04-35.45 133.59-35.45L133.59-35.45Q133.84-35.45 134.44-35.33 135.04-35.2 135.39-35.2L135.39-35.2Z" opacity="1" transform="matrix(1,0,0,1,0,0)" fill="#48937e" class="wordmark-text-0" data-fill-palette-color="primary" id="text-0"></path></svg></g></svg></g></svg></g></svg></g><g transform="matrix(1,0,0,1,417.3948809530167,0)"><svg viewBox="0 0 128.05658125802307 128.0565812580231" height="128.0565812580231" width="128.05658125802307"><g><svg></svg></g><g id="icon-0"><svg viewBox="0 0 128.05658125802307 128.0565812580231" height="128.0565812580231" width="128.05658125802307"><g><path transform="scale(1.28057,1.28057)" d="M30 100c-16.569 0-30-13.431-30-30v-40c0-16.569 13.431-30 30-30h40c16.569 0 30 13.431 30 30v40c0 16.569-13.431 30-30 30z" fill="#f231aa" fill-rule="nonzero" stroke="none" stroke-width="1" stroke-linecap="butt" stroke-linejoin="miter" stroke-miterlimit="10" stroke-dasharray="" stroke-dashoffset="0" font-family="none" font-weight="none" font-size="none" text-anchor="none" style="mix-blend-mode: normal" data-fill-palette-color="accent"></path></g><g transform="matrix(1,0,0,1,27.827680157993463,25.61131625160462)"><svg viewBox="0 0 72.40122094203615 76.83394875481386" height="76.83394875481386" width="72.40122094203615"><g><svg xmlns="http://www.w3.org/2000/svg" xmlns:xlink="http://www.w3.org/1999/xlink" version="1.1" x="0" y="0" viewBox="0 0 49 52" enable-background="new 0 0 49 52" xml:space="preserve" height="76.83394875481386" width="72.40122094203615" class="icon-cg-0" data-fill-palette-color="quaternary" id="cg-0"><g fill="#000000" data-fill-palette-color="quaternary"><path d="M24 39c-3.86 0-7 3.14-7 7 0 0.55 0.45 1 1 1s1-0.45 1-1c0-2.76 2.24-5 5-5s5 2.24 5 5c0 0.55 0.45 1 1 1s1-0.45 1-1C31 42.14 27.86 39 24 39z" fill="#000000" data-fill-palette-color="quaternary"></path><circle cx="18" cy="29" r="2.0" fill="#000000" data-fill-palette-color="quaternary"></circle><circle cx="32" cy="29" r="2.0" fill="#000000" data-fill-palette-color="quaternary"></circle><path d="M35.29 35.29C35.11 35.48 35 35.74 35 36s0.11 0.52 0.29 0.71C35.48 36.89 35.74 37 36 37c0.26 0 0.52-0.11 0.71-0.29C36.89 36.52 37 36.26 37 36c0-0.27-0.11-0.52-0.29-0.71C36.33 34.92 35.66 34.92 35.29 35.29z" fill="#000000" data-fill-palette-color="quaternary"></path><path d="M33.17 33.17c-0.19 0.19-0.29 0.44-0.29 0.71 0 0.26 0.1 0.52 0.29 0.71 0.19 0.18 0.45 0.29 0.71 0.29 0.26 0 0.52-0.11 0.71-0.3 0.18-0.18 0.29-0.44 0.29-0.7 0-0.27-0.11-0.53-0.29-0.71C34.22 32.8 33.54 32.8 33.17 33.17z" fill="#000000" data-fill-palette-color="quaternary"></path><path d="M37.41 33.17c-0.18 0.19-0.29 0.44-0.29 0.71 0 0.26 0.11 0.52 0.29 0.71 0.19 0.18 0.45 0.29 0.71 0.29 0.26 0 0.52-0.11 0.71-0.3 0.18-0.18 0.29-0.44 0.29-0.7 0-0.27-0.11-0.53-0.29-0.71C38.46 32.8 37.79 32.8 37.41 33.17z" fill="#000000" data-fill-palette-color="quaternary"></path><path d="M37.42 37.41c-0.19 0.18-0.3 0.44-0.3 0.71 0 0.27 0.11 0.52 0.3 0.71 0.18 0.18 0.44 0.29 0.7 0.29 0.26 0 0.52-0.11 0.71-0.29 0.18-0.19 0.29-0.45 0.29-0.71s-0.11-0.52-0.29-0.71C38.46 37.04 37.78 37.04 37.42 37.41z" fill="#000000" data-fill-palette-color="quaternary"></path><path d="M33.17 37.41c-0.18 0.19-0.29 0.44-0.29 0.71 0 0.26 0.11 0.52 0.29 0.71 0.19 0.18 0.45 0.29 0.71 0.29 0.26 0 0.52-0.11 0.71-0.29 0.18-0.19 0.29-0.45 0.29-0.71s-0.11-0.52-0.29-0.71C34.22 37.04 33.55 37.04 33.17 37.41z" fill="#000000" data-fill-palette-color="quaternary"></path><path d="M13.17 35.41c-0.18 0.19-0.29 0.44-0.29 0.71 0 0.26 0.11 0.52 0.29 0.71 0.19 0.18 0.45 0.29 0.71 0.29 0.26 0 0.52-0.11 0.71-0.29 0.18-0.19 0.29-0.45 0.29-0.71s-0.11-0.52-0.29-0.71C14.21 35.04 13.54 35.04 13.17 35.41z" fill="#000000" data-fill-palette-color="quaternary"></path><path d="M11.05 33.29c-0.19 0.18-0.29 0.44-0.29 0.71 0 0.26 0.1 0.52 0.29 0.71C11.24 34.89 11.5 35 11.76 35c0.26 0 0.51-0.11 0.71-0.29 0.18-0.19 0.29-0.45 0.29-0.71 0-0.27-0.11-0.52-0.3-0.71C12.09 32.92 11.42 32.92 11.05 33.29z" fill="#000000" data-fill-palette-color="quaternary"></path><path d="M16 35c0.26 0 0.52-0.11 0.71-0.29C16.89 34.52 17 34.26 17 34c0-0.27-0.11-0.52-0.29-0.71-0.37-0.37-1.05-0.37-1.42 0C15.11 33.48 15 33.74 15 34s0.11 0.52 0.29 0.71C15.48 34.89 15.74 35 16 35z" fill="#000000" data-fill-palette-color="quaternary"></path><path d="M16.71 37.53c-0.37-0.37-1.05-0.37-1.42 0C15.11 37.72 15 37.98 15 38.24c0 0.26 0.11 0.52 0.29 0.71 0.19 0.19 0.45 0.29 0.71 0.29 0.26 0 0.52-0.1 0.7-0.29 0.19-0.18 0.3-0.44 0.3-0.71C17 37.97 16.89 37.72 16.71 37.53z" fill="#000000" data-fill-palette-color="quaternary"></path><path d="M11.05 37.53c-0.19 0.19-0.29 0.45-0.29 0.71 0 0.27 0.1 0.52 0.29 0.71 0.19 0.19 0.45 0.29 0.71 0.29 0.26 0 0.52-0.1 0.7-0.29 0.19-0.19 0.3-0.45 0.3-0.71 0-0.26-0.11-0.52-0.3-0.71C12.09 37.16 11.42 37.16 11.05 37.53z" fill="#000000" data-fill-palette-color="quaternary"></path><path d="M45.89 25.31c-1.6-7.94-7.53-14.28-15.32-16.46L31 1.06c0.02-0.27-0.08-0.54-0.27-0.74C30.54 0.11 30.27 0 30 0H20c-0.27 0-0.54 0.11-0.73 0.31-0.19 0.2-0.29 0.47-0.27 0.74l0.42 7.54C11.1 10.5 4.79 16.95 3.11 25.31 1.31 26.29 0 28.42 0 30.5c0 2.15 1.27 4.09 3.21 4.98C5.7 45.23 14.38 52 24.5 52s18.8-6.77 21.29-16.52C47.73 34.59 49 32.65 49 30.5 49 28.42 47.69 26.29 45.89 25.31zM28.94 2l-0.42 7.54c0 0 0 0 0 0L28.05 18h-6.11l-0.48-8.67c0 0 0 0 0 0L21.06 2H28.94zM44.62 33.8c-0.33 0.11-0.57 0.38-0.65 0.72C41.86 43.63 33.85 50 24.5 50S7.14 43.63 5.03 34.52c-0.08-0.34-0.32-0.61-0.65-0.72C2.96 33.31 2 31.99 2 30.5c0-1.45 1.06-3.05 2.37-3.57 0.32-0.13 0.55-0.41 0.62-0.76 1.36-7.7 7.01-13.7 14.55-15.56L20 19.06c0.03 0.53 0.47 0.94 1 0.94h8c0.53 0 0.97-0.42 1-0.94l0.45-8.17c7.01 2.13 12.28 8.01 13.56 15.29 0.06 0.34 0.29 0.63 0.62 0.76C45.94 27.45 47 29.05 47 30.5 47 31.99 46.04 33.31 44.62 33.8z" fill="#000000" data-fill-palette-color="quaternary"></path><path d="M20.38 26.78C20.56 26.93 20.78 27 21 27c0.29 0 0.58-0.13 0.78-0.38 0.35-0.43 0.28-1.06-0.16-1.41l-5-4c-0.43-0.34-1.06-0.27-1.41 0.16-0.35 0.43-0.28 1.06 0.16 1.41L20.38 26.78z" fill="#000000" data-fill-palette-color="quaternary"></path><path d="M33.38 21.22l-5 4c-0.43 0.35-0.5 0.97-0.16 1.41C28.42 26.87 28.71 27 29 27c0.22 0 0.44-0.07 0.62-0.22l5-4c0.43-0.35 0.5-0.97 0.16-1.41C34.44 20.94 33.81 20.87 33.38 21.22z" fill="#000000" data-fill-palette-color="quaternary"></path></g></svg></g></svg></g></svg></g></svg></g></svg></g><defs></defs></svg><rect width="395.52" height="92.85691308602047" fill="none" stroke="none" visibility="hidden"></rect></g></svg></g></svg>